<svg xmlns="http://www.w3.org/2000/svg" viewBox="0 0 100 100"><circle cx="50" cy="50" r="50" fill="#bc7bc2"/><g fill="#1b1b2b"><path d="M30.06 37.48C30.00 37.30 29.94 37.14 29.88 36.97C29.82 36.80 29.75 36.63 29.68 36.46C29.61 36.29 29.54 36.12 29.46 35.96C29.39 35.79 29.31 35.63 29.23 35.47C29.15 35.31 29.06 35.14 28.97 34.99C28.88 34.83 28.79 34.67 28.69 34.52C28.60 34.36 28.50 34.21 28.40 34.06C28.30 33.91 28.19 33.76 28.08 33.61C27.98 33.46 27.87 33.32 27.75 33.18C27.64 33.04 27.52 32.90 27.40 32.76C27.28 32.63 27.15 32.49 27.03 32.36C26.90 32.23 26.77 32.11 26.64 31.98C26.51 31.86 26.37 31.74 26.23 31.62C26.09 31.50 25.95 31.39 25.80 31.28C25.66 31.17 25.51 31.07 25.36 30.96C25.21 30.86 25.06 30.77 24.90 30.67C24.75 30.58 24.59 30.49 24.43 30.41C24.27 30.33 24.10 30.25 23.94 30.18C23.77 30.11 23.60 30.04 23.43 29.98C23.26 29.92 23.09 29.86 22.92 29.81C22.75 29.77 22.57 29.72 22.39 29.69C22.22 29.65 22.04 29.62 21.86 29.60C21.68 29.58 21.50 29.57 21.32 29.56C21.14 29.55 20.96 29.55 20.78 29.56C20.61 29.57 20.43 29.59 20.25 29.61C20.07 29.64 19.90 29.67 19.72 29.71C19.55 29.75 19.37 29.80 19.20 29.85C19.04 29.91 18.89 29.96 18.73 30.03C18.58 30.09 18.43 30.16 18.28 30.24C18.13 30.32 17.99 30.40 17.85 30.49C17.71 30.58 17.57 30.67 17.43 30.77C17.30 30.87 17.17 30.98 17.04 31.09C16.92 31.20 16.80 31.31 16.68 31.43C16.56 31.55 16.45 31.67 16.34 31.80C16.23 31.93 16.13 32.06 16.03 32.19C15.93 32.33 15.84 32.46 15.75 32.60C15.65 32.75 15.57 32.89 15.49 33.03C15.40 33.18 15.33 33.33 15.25 33.48C15.18 33.63 15.11 33.79 15.04 33.94C14.98 34.10 14.91 34.26 14.86 34.43C14.80 34.59 14.74 34.76 14.69 34.93C14.64 35.09 14.59 35.27 14.55 35.44C14.51 35.61 14.47 35.79 14.44 35.97C14.40 36.15 14.37 36.33 14.35 36.51C14.32 36.70 14.30 36.88 14.28 37.07C14.26 37.26 14.25 37.45 14.24 37.64C14.23 37.83 14.23 38.02 14.23 38.21C14.23 38.41 14.23 38.60 14.24 38.80C14.25 38.99 14.26 39.19 14.28 39.39C14.30 39.59 14.32 39.79 14.35 39.99C14.38 40.19 14.41 40.39 14.45 40.59C14.48 40.79 14.52 40.99 14.57 41.19C14.62 41.39 14.67 41.60 14.72 41.80C14.78 42.00 14.85 42.22 14.91 42.41C14.97 42.59 15.02 42.75 15.09 42.92C15.15 43.09 15.21 43.26 15.28 43.43C15.35 43.60 15.43 43.77 15.50 43.93C15.58 44.10 15.66 44.26 15.74 44.42C15.82 44.59 15.91 44.75 16.00 44.91C16.08 45.06 16.18 45.22 16.27 45.38C16.37 45.53 16.47 45.68 16.57 45.84C16.67 45.99 16.77 46.13 16.88 46.28C16.99 46.43 17.10 46.57 17.22 46.71C17.33 46.85 17.45 46.99 17.57 47.13C17.69 47.27 17.81 47.40 17.94 47.53C18.07 47.66 18.20 47.79 18.33 47.91C18.46 48.03 18.60 48.15 18.74 48.27C18.88 48.39 19.02 48.50 19.16 48.61C19.31 48.72 19.45 48.83 19.60 48.93C19.76 49.03 19.91 49.13 20.06 49.22C20.22 49.31 20.38 49.40 20.54 49.48C20.70 49.56 20.86 49.64 21.03 49.71C21.20 49.79 21.36 49.85 21.53 49.91C21.70 49.97 21.87 50.03 22.05 50.08C22.22 50.13 22.40 50.17 22.57 50.20C22.75 50.24 22.93 50.27 23.11 50.29C23.28 50.31 23.47 50.33 23.65 50.33C23.82 50.34 24.00 50.34 24.18 50.33C24.36 50.32 24.54 50.30 24.72 50.28C24.89 50.25 25.07 50.22 25.24 50.18C25.42 50.14 25.60 50.09 25.76 50.04C25.93 49.99 26.08 49.93 26.23 49.86C26.39 49.80 26.54 49.73 26.69 49.65C26.83 49.58 26.98 49.49 27.12 49.40C27.26 49.31 27.40 49.22 27.53 49.12C27.67 49.02 27.80 48.91 27.92 48.80C28.05 48.69 28.17 48.58 28.29 48.46C28.40 48.34 28.52 48.22 28.62 48.09C28.73 47.96 28.84 47.83 28.94 47.70C29.04 47.56 29.13 47.43 29.22 47.29C29.31 47.15 29.40 47.00 29.48 46.86C29.56 46.71 29.64 46.56 29.71 46.41C29.79 46.26 29.86 46.11 29.92 45.95C29.99 45.79 30.05 45.63 30.11 45.47C30.17 45.30 30.22 45.14 30.28 44.97C30.33 44.80 30.37 44.63 30.42 44.45C30.46 44.28 30.50 44.10 30.53 43.92C30.56 43.74 30.60 43.56 30.62 43.38C30.65 43.19 30.67 43.01 30.69 42.82C30.70 42.63 30.72 42.45 30.73 42.26C30.73 42.06 30.74 41.87 30.74 41.68C30.74 41.49 30.73 41.29 30.73 41.09C30.72 40.90 30.70 40.70 30.69 40.50C30.67 40.31 30.64 40.11 30.62 39.91C30.59 39.71 30.56 39.51 30.52 39.30C30.48 39.10 30.44 38.90 30.40 38.70C30.35 38.50 30.30 38.30 30.24 38.09C30.19 37.89 30.12 37.67 30.06 37.48Z"/><path d="M80.80 29.85C80.63 29.80 80.48 29.76 80.31 29.72C80.15 29.68 79.99 29.65 79.82 29.62C79.66 29.60 79.49 29.58 79.32 29.57C79.16 29.56 78.99 29.55 78.82 29.56C78.66 29.56 78.49 29.57 78.32 29.58C78.16 29.60 77.99 29.62 77.83 29.65C77.66 29.67 77.50 29.71 77.34 29.75C77.17 29.79 77.01 29.83 76.85 29.88C76.69 29.93 76.54 29.99 76.38 30.05C76.23 30.11 76.07 30.17 75.92 30.24C75.77 30.31 75.62 30.39 75.47 30.47C75.32 30.54 75.17 30.63 75.02 30.72C74.88 30.81 74.73 30.90 74.59 31.00C74.45 31.09 74.30 31.20 74.16 31.30C74.02 31.41 73.89 31.52 73.75 31.64C73.61 31.75 73.48 31.87 73.34 32.00C73.21 32.12 73.08 32.25 72.95 32.39C72.82 32.52 72.70 32.66 72.57 32.80C72.45 32.94 72.32 33.08 72.21 33.23C72.09 33.38 71.97 33.53 71.86 33.69C71.74 33.85 71.63 34.01 71.52 34.17C71.42 34.34 71.31 34.50 71.21 34.67C71.11 34.84 71.01 35.02 70.91 35.20C70.82 35.37 70.73 35.56 70.64 35.74C70.55 35.92 70.46 36.11 70.38 36.30C70.30 36.49 70.22 36.69 70.15 36.88C70.08 37.08 70.00 37.30 69.94 37.48C69.88 37.67 69.83 37.83 69.78 38.01C69.73 38.18 69.69 38.36 69.64 38.53C69.60 38.71 69.56 38.89 69.52 39.07C69.49 39.25 69.46 39.43 69.43 39.60C69.40 39.78 69.37 39.96 69.35 40.15C69.33 40.33 69.31 40.51 69.30 40.69C69.29 40.87 69.28 41.05 69.27 41.23C69.26 41.41 69.26 41.60 69.26 41.78C69.26 41.96 69.27 42.14 69.28 42.32C69.29 42.51 69.30 42.69 69.32 42.87C69.34 43.05 69.36 43.23 69.38 43.41C69.41 43.59 69.44 43.77 69.47 43.95C69.51 44.12 69.55 44.30 69.59 44.48C69.64 44.65 69.68 44.83 69.74 45.00C69.79 45.18 69.85 45.35 69.91 45.52C69.97 45.69 70.04 45.86 70.11 46.03C70.18 46.19 70.26 46.36 70.34 46.52C70.42 46.68 70.51 46.84 70.60 46.99C70.69 47.15 70.79 47.30 70.89 47.45C70.99 47.60 71.10 47.75 71.21 47.89C71.32 48.03 71.44 48.17 71.56 48.30C71.68 48.43 71.81 48.56 71.94 48.68C72.07 48.80 72.21 48.92 72.35 49.03C72.49 49.14 72.64 49.25 72.79 49.34C72.94 49.44 73.09 49.53 73.25 49.62C73.41 49.70 73.57 49.78 73.73 49.85C73.90 49.92 74.07 49.98 74.24 50.04C74.40 50.09 74.56 50.14 74.72 50.17C74.88 50.21 75.05 50.24 75.21 50.27C75.38 50.29 75.54 50.31 75.71 50.32C75.88 50.33 76.04 50.34 76.21 50.34C76.38 50.33 76.54 50.32 76.71 50.31C76.88 50.29 77.04 50.27 77.21 50.24C77.37 50.22 77.54 50.18 77.70 50.14C77.86 50.11 78.02 50.06 78.18 50.01C78.34 49.96 78.50 49.90 78.65 49.84C78.81 49.78 78.96 49.72 79.11 49.65C79.27 49.58 79.42 49.51 79.57 49.43C79.71 49.35 79.86 49.26 80.01 49.17C80.15 49.09 80.30 48.99 80.44 48.89C80.59 48.80 80.73 48.69 80.87 48.59C81.01 48.48 81.15 48.37 81.29 48.25C81.42 48.14 81.56 48.02 81.69 47.89C81.82 47.77 81.95 47.64 82.08 47.51C82.21 47.37 82.34 47.24 82.46 47.09C82.59 46.95 82.71 46.81 82.83 46.66C82.95 46.51 83.06 46.36 83.18 46.20C83.29 46.04 83.40 45.88 83.51 45.72C83.62 45.56 83.72 45.39 83.82 45.22C83.93 45.05 84.02 44.87 84.12 44.69C84.22 44.52 84.31 44.34 84.40 44.15C84.48 43.97 84.57 43.78 84.65 43.59C84.73 43.40 84.81 43.20 84.88 43.01C84.96 42.81 85.03 42.59 85.09 42.41C85.15 42.22 85.20 42.06 85.25 41.88C85.30 41.71 85.35 41.53 85.39 41.36C85.43 41.18 85.47 41.00 85.51 40.82C85.54 40.65 85.58 40.47 85.61 40.29C85.63 40.11 85.66 39.93 85.68 39.75C85.70 39.57 85.72 39.38 85.73 39.20C85.75 39.02 85.76 38.84 85.76 38.66C85.77 38.48 85.77 38.29 85.77 38.11C85.77 37.93 85.77 37.75 85.76 37.57C85.75 37.39 85.73 37.20 85.72 37.02C85.70 36.84 85.68 36.66 85.65 36.48C85.62 36.30 85.59 36.12 85.56 35.95C85.52 35.77 85.49 35.59 85.44 35.41C85.40 35.24 85.35 35.06 85.30 34.89C85.24 34.71 85.19 34.54 85.13 34.37C85.06 34.20 85.00 34.03 84.92 33.87C84.85 33.70 84.78 33.54 84.69 33.37C84.61 33.21 84.53 33.05 84.43 32.90C84.34 32.74 84.25 32.59 84.15 32.44C84.04 32.29 83.94 32.15 83.83 32.00C83.71 31.86 83.60 31.73 83.47 31.59C83.35 31.46 83.23 31.33 83.09 31.21C82.96 31.09 82.82 30.97 82.68 30.86C82.54 30.75 82.39 30.65 82.25 30.55C82.10 30.45 81.94 30.36 81.78 30.27C81.63 30.19 81.47 30.11 81.30 30.04C81.14 29.97 80.96 29.91 80.80 29.85Z"/><path d="M48.44 25.13C48.44 24.92 48.44 24.75 48.43 24.57C48.42 24.38 48.41 24.19 48.40 24.00C48.39 23.82 48.37 23.63 48.35 23.44C48.33 23.26 48.31 23.07 48.28 22.89C48.25 22.70 48.22 22.52 48.19 22.33C48.15 22.15 48.12 21.96 48.07 21.78C48.03 21.60 47.99 21.42 47.94 21.23C47.89 21.05 47.84 20.87 47.78 20.69C47.73 20.51 47.67 20.34 47.60 20.16C47.54 19.98 47.47 19.81 47.40 19.63C47.33 19.46 47.26 19.29 47.18 19.12C47.10 18.95 47.02 18.78 46.93 18.61C46.85 18.45 46.76 18.28 46.66 18.12C46.57 17.96 46.47 17.80 46.37 17.65C46.27 17.49 46.16 17.33 46.05 17.18C45.94 17.03 45.83 16.88 45.71 16.74C45.59 16.59 45.47 16.45 45.34 16.32C45.21 16.18 45.08 16.05 44.95 15.92C44.81 15.79 44.68 15.67 44.53 15.55C44.39 15.43 44.24 15.31 44.09 15.21C43.94 15.10 43.79 15.00 43.63 14.90C43.47 14.80 43.31 14.71 43.14 14.63C42.98 14.55 42.81 14.47 42.63 14.40C42.46 14.34 42.29 14.28 42.11 14.22C41.93 14.17 41.75 14.13 41.57 14.09C41.39 14.06 41.21 14.03 41.03 14.01C40.85 14.00 40.65 13.99 40.47 13.99C40.30 13.99 40.14 13.99 39.97 14.01C39.80 14.02 39.63 14.05 39.47 14.08C39.30 14.11 39.13 14.14 38.97 14.19C38.81 14.23 38.65 14.28 38.49 14.34C38.33 14.40 38.17 14.46 38.02 14.53C37.86 14.60 37.71 14.68 37.56 14.76C37.41 14.84 37.27 14.93 37.13 15.02C36.99 15.11 36.85 15.21 36.71 15.31C36.58 15.42 36.44 15.52 36.32 15.63C36.19 15.74 36.06 15.86 35.94 15.98C35.82 16.10 35.70 16.22 35.58 16.34C35.47 16.47 35.35 16.60 35.24 16.74C35.13 16.87 35.02 17.01 34.92 17.16C34.81 17.30 34.71 17.45 34.61 17.60C34.51 17.76 34.41 17.91 34.32 18.07C34.22 18.23 34.13 18.39 34.04 18.56C33.96 18.73 33.87 18.90 33.79 19.07C33.71 19.25 33.63 19.43 33.56 19.61C33.48 19.79 33.41 19.97 33.35 20.16C33.28 20.35 33.22 20.54 33.16 20.73C33.10 20.92 33.04 21.12 32.99 21.32C32.94 21.52 32.89 21.72 32.85 21.92C32.80 22.12 32.76 22.33 32.73 22.54C32.69 22.74 32.66 22.95 32.63 23.17C32.60 23.38 32.58 23.59 32.56 23.81C32.55 24.03 32.53 24.24 32.52 24.46C32.51 24.68 32.51 24.92 32.51 25.13C32.51 25.33 32.51 25.50 32.52 25.69C32.53 25.88 32.54 26.07 32.55 26.25C32.56 26.44 32.58 26.63 32.60 26.81C32.62 27.00 32.64 27.19 32.67 27.37C32.70 27.56 32.73 27.74 32.76 27.93C32.80 28.11 32.83 28.30 32.88 28.48C32.92 28.66 32.96 28.84 33.01 29.02C33.06 29.20 33.11 29.39 33.17 29.56C33.22 29.74 33.28 29.92 33.35 30.10C33.41 30.27 33.48 30.45 33.55 30.62C33.62 30.80 33.69 30.97 33.77 31.14C33.85 31.31 33.93 31.48 34.02 31.64C34.10 31.81 34.19 31.97 34.29 32.14C34.38 32.30 34.48 32.46 34.58 32.61C34.68 32.77 34.79 32.92 34.90 33.08C35.01 33.23 35.12 33.37 35.24 33.52C35.36 33.66 35.48 33.81 35.61 33.94C35.74 34.08 35.87 34.21 36.00 34.34C36.14 34.47 36.27 34.59 36.42 34.71C36.56 34.83 36.71 34.94 36.86 35.05C37.01 35.16 37.16 35.26 37.32 35.36C37.48 35.45 37.64 35.54 37.81 35.63C37.97 35.71 38.14 35.79 38.32 35.85C38.49 35.92 38.66 35.98 38.84 36.03C39.02 36.09 39.20 36.13 39.38 36.17C39.56 36.20 39.74 36.23 39.92 36.24C40.10 36.26 40.30 36.27 40.47 36.27C40.65 36.27 40.81 36.26 40.98 36.25C41.15 36.23 41.32 36.21 41.48 36.18C41.65 36.15 41.82 36.11 41.98 36.07C42.14 36.03 42.30 35.98 42.46 35.92C42.62 35.86 42.78 35.80 42.93 35.73C43.09 35.66 43.24 35.58 43.39 35.50C43.54 35.42 43.68 35.33 43.82 35.24C43.96 35.14 44.10 35.05 44.24 34.94C44.37 34.84 44.51 34.74 44.63 34.63C44.76 34.52 44.89 34.40 45.01 34.28C45.13 34.16 45.25 34.04 45.37 33.91C45.48 33.79 45.60 33.66 45.71 33.52C45.82 33.38 45.93 33.24 46.03 33.10C46.14 32.96 46.24 32.81 46.34 32.66C46.44 32.50 46.54 32.35 46.63 32.19C46.73 32.03 46.82 31.86 46.91 31.70C46.99 31.53 47.08 31.36 47.16 31.18C47.24 31.01 47.32 30.83 47.39 30.65C47.47 30.47 47.54 30.28 47.60 30.10C47.67 29.91 47.73 29.72 47.79 29.53C47.85 29.33 47.91 29.14 47.96 28.94C48.01 28.74 48.06 28.54 48.10 28.34C48.15 28.14 48.19 27.93 48.22 27.72C48.26 27.51 48.29 27.30 48.32 27.09C48.35 26.88 48.37 26.67 48.39 26.45C48.40 26.23 48.42 26.01 48.43 25.79C48.44 25.57 48.44 25.33 48.44 25.13Z"/><path d="M74.91 64.37C74.83 63.93 74.74 63.53 74.65 63.11C74.55 62.70 74.44 62.28 74.32 61.87C74.20 61.46 74.07 61.05 73.93 60.65C73.80 60.24 73.65 59.84 73.48 59.44C73.32 59.05 73.15 58.65 72.97 58.27C72.79 57.88 72.60 57.49 72.39 57.12C72.19 56.74 71.98 56.37 71.75 56.00C71.53 55.64 71.30 55.28 71.06 54.93C70.81 54.58 70.56 54.23 70.30 53.90C70.04 53.56 69.77 53.23 69.48 52.91C69.20 52.58 68.91 52.27 68.61 51.96C68.31 51.66 68.00 51.36 67.69 51.07C67.37 50.78 67.05 50.50 66.72 50.23C66.39 49.96 66.05 49.70 65.71 49.45C65.36 49.20 65.01 48.96 64.66 48.73C64.30 48.50 63.93 48.28 63.56 48.07C63.19 47.86 62.82 47.66 62.44 47.46C62.06 47.27 61.67 47.09 61.27 46.92C60.88 46.75 60.48 46.58 60.08 46.43C59.68 46.28 59.27 46.14 58.87 46.01C58.46 45.88 58.05 45.76 57.64 45.65C57.22 45.54 56.81 45.44 56.39 45.35C55.97 45.25 55.55 45.17 55.13 45.10C54.71 45.03 54.28 44.97 53.86 44.91C53.43 44.86 53.01 44.82 52.58 44.78C52.15 44.75 51.72 44.72 51.29 44.70C50.86 44.69 50.43 44.68 50.00 44.68C49.57 44.68 49.14 44.69 48.71 44.70C48.28 44.72 47.85 44.75 47.42 44.78C46.99 44.82 46.57 44.86 46.14 44.91C45.71 44.97 45.29 45.03 44.87 45.10C44.44 45.17 44.02 45.26 43.60 45.35C43.18 45.44 42.77 45.54 42.35 45.65C41.94 45.76 41.52 45.88 41.11 46.02C40.71 46.15 40.30 46.29 39.90 46.44C39.50 46.59 39.10 46.75 38.71 46.92C38.32 47.10 37.94 47.28 37.55 47.47C37.17 47.66 36.80 47.86 36.42 48.07C36.05 48.29 35.69 48.51 35.33 48.74C34.97 48.97 34.61 49.22 34.27 49.47C33.92 49.72 33.58 49.98 33.25 50.25C32.92 50.52 32.60 50.80 32.28 51.09C31.97 51.38 31.67 51.68 31.37 51.98C31.07 52.28 30.78 52.60 30.50 52.92C30.22 53.24 29.95 53.57 29.69 53.91C29.43 54.24 29.18 54.59 28.94 54.94C28.69 55.29 28.46 55.66 28.24 56.02C28.01 56.39 27.80 56.76 27.60 57.13C27.40 57.51 27.20 57.89 27.02 58.28C26.84 58.66 26.67 59.06 26.51 59.45C26.35 59.85 26.20 60.25 26.06 60.65C25.93 61.05 25.80 61.46 25.68 61.87C25.56 62.28 25.45 62.69 25.35 63.11C25.26 63.53 25.16 63.95 25.09 64.37C25.02 64.80 24.97 65.22 24.93 65.65C24.89 66.08 24.86 66.51 24.85 66.93C24.85 67.36 24.85 67.79 24.88 68.22C24.91 68.65 24.95 69.08 25.01 69.50C25.07 69.92 25.15 70.35 25.24 70.76C25.34 71.18 25.45 71.59 25.58 72.00C25.71 72.41 25.85 72.81 26.02 73.21C26.18 73.60 26.36 74.00 26.55 74.38C26.75 74.76 26.96 75.13 27.18 75.49C27.40 75.86 27.64 76.21 27.89 76.56C28.14 76.90 28.40 77.24 28.68 77.57C28.95 77.90 29.24 78.21 29.54 78.52C29.84 78.83 30.15 79.13 30.47 79.42C30.79 79.72 31.13 80.00 31.48 80.28C31.82 80.55 32.18 80.82 32.55 81.08C32.92 81.33 33.30 81.58 33.69 81.82C34.09 82.06 34.49 82.30 34.90 82.52C35.32 82.74 35.74 82.95 36.18 83.16C36.61 83.36 37.06 83.55 37.51 83.73C37.96 83.92 38.43 84.09 38.90 84.25C39.37 84.41 39.86 84.57 40.35 84.71C40.84 84.85 41.34 84.98 41.84 85.10C42.35 85.22 42.87 85.33 43.39 85.42C43.91 85.52 44.44 85.60 44.98 85.68C45.52 85.75 46.06 85.81 46.61 85.86C47.17 85.91 47.72 85.95 48.29 85.97C48.85 86.00 49.48 86.01 50.00 86.01C50.52 86.01 50.94 86.00 51.41 85.99C51.88 85.97 52.35 85.94 52.82 85.91C53.29 85.87 53.76 85.83 54.23 85.78C54.70 85.72 55.16 85.66 55.63 85.59C56.09 85.52 56.55 85.44 57.02 85.35C57.48 85.25 57.93 85.15 58.39 85.04C58.85 84.93 59.30 84.81 59.75 84.68C60.20 84.55 60.65 84.41 61.09 84.26C61.53 84.10 61.98 83.94 62.41 83.77C62.85 83.59 63.28 83.41 63.70 83.21C64.13 83.02 64.55 82.81 64.96 82.59C65.38 82.37 65.78 82.14 66.18 81.90C66.58 81.66 66.98 81.40 67.36 81.14C67.74 80.87 68.12 80.59 68.49 80.31C68.85 80.02 69.21 79.72 69.55 79.40C69.90 79.09 70.23 78.77 70.55 78.43C70.87 78.09 71.18 77.74 71.47 77.38C71.77 77.02 72.05 76.65 72.31 76.27C72.58 75.89 72.83 75.49 73.06 75.09C73.29 74.69 73.50 74.28 73.70 73.86C73.89 73.45 74.07 73.02 74.22 72.58C74.38 72.15 74.52 71.71 74.64 71.26C74.75 70.81 74.85 70.35 74.93 69.90C75.01 69.44 75.06 68.98 75.10 68.52C75.14 68.06 75.15 67.60 75.15 67.14C75.15 66.68 75.12 66.22 75.08 65.76C75.04 65.30 74.98 64.81 74.91 64.37Z"/><path d="M67.49 25.13C67.49 24.92 67.49 24.75 67.48 24.57C67.47 24.38 67.46 24.19 67.45 24.00C67.44 23.82 67.42 23.63 67.40 23.44C67.38 23.26 67.36 23.07 67.33 22.89C67.30 22.70 67.27 22.52 67.24 22.33C67.20 22.15 67.17 21.96 67.12 21.78C67.08 21.60 67.04 21.42 66.99 21.23C66.94 21.05 66.89 20.87 66.83 20.69C66.78 20.51 66.72 20.34 66.65 20.16C66.59 19.98 66.52 19.81 66.45 19.63C66.38 19.46 66.31 19.29 66.23 19.12C66.15 18.95 66.07 18.78 65.98 18.61C65.90 18.45 65.81 18.28 65.71 18.12C65.62 17.96 65.52 17.80 65.42 17.65C65.32 17.49 65.21 17.33 65.10 17.18C64.99 17.03 64.88 16.88 64.76 16.74C64.64 16.59 64.52 16.45 64.39 16.32C64.26 16.18 64.13 16.05 64.00 15.92C63.86 15.79 63.73 15.67 63.58 15.55C63.44 15.43 63.29 15.31 63.14 15.21C62.99 15.10 62.84 15.00 62.68 14.90C62.52 14.80 62.36 14.71 62.19 14.63C62.03 14.55 61.86 14.47 61.68 14.40C61.51 14.34 61.34 14.28 61.16 14.22C60.98 14.17 60.80 14.13 60.62 14.09C60.44 14.06 60.26 14.03 60.08 14.01C59.90 14.00 59.70 13.99 59.53 13.99C59.35 13.99 59.19 13.99 59.02 14.01C58.85 14.02 58.68 14.05 58.52 14.08C58.35 14.11 58.18 14.14 58.02 14.19C57.86 14.23 57.70 14.28 57.54 14.34C57.38 14.40 57.22 14.46 57.07 14.53C56.91 14.60 56.76 14.68 56.61 14.76C56.46 14.84 56.32 14.93 56.18 15.02C56.04 15.11 55.90 15.21 55.76 15.31C55.63 15.42 55.49 15.52 55.37 15.63C55.24 15.74 55.11 15.86 54.99 15.98C54.87 16.10 54.75 16.22 54.63 16.34C54.52 16.47 54.40 16.60 54.29 16.74C54.18 16.87 54.07 17.01 53.97 17.16C53.86 17.30 53.76 17.45 53.66 17.60C53.56 17.76 53.46 17.91 53.37 18.07C53.27 18.23 53.18 18.39 53.09 18.56C53.01 18.73 52.92 18.90 52.84 19.07C52.76 19.25 52.68 19.43 52.61 19.61C52.53 19.79 52.46 19.97 52.40 20.16C52.33 20.35 52.27 20.54 52.21 20.73C52.15 20.92 52.09 21.12 52.04 21.32C51.99 21.52 51.94 21.72 51.90 21.92C51.85 22.12 51.81 22.33 51.78 22.54C51.74 22.74 51.71 22.95 51.68 23.17C51.65 23.38 51.63 23.59 51.61 23.81C51.60 24.03 51.58 24.24 51.57 24.46C51.56 24.68 51.56 24.92 51.56 25.13C51.56 25.33 51.56 25.50 51.57 25.69C51.58 25.88 51.59 26.07 51.60 26.25C51.61 26.44 51.63 26.63 51.65 26.81C51.67 27.00 51.69 27.19 51.72 27.37C51.75 27.56 51.78 27.74 51.81 27.93C51.85 28.11 51.88 28.30 51.93 28.48C51.97 28.66 52.01 28.84 52.06 29.02C52.11 29.20 52.16 29.39 52.22 29.56C52.27 29.74 52.33 29.92 52.40 30.10C52.46 30.27 52.53 30.45 52.60 30.62C52.67 30.80 52.74 30.97 52.82 31.14C52.90 31.31 52.98 31.48 53.07 31.64C53.15 31.81 53.24 31.97 53.34 32.14C53.43 32.30 53.53 32.46 53.63 32.61C53.73 32.77 53.84 32.92 53.95 33.08C54.06 33.23 54.17 33.37 54.29 33.52C54.41 33.66 54.53 33.81 54.66 33.94C54.79 34.08 54.92 34.21 55.05 34.34C55.19 34.47 55.32 34.59 55.47 34.71C55.61 34.83 55.76 34.94 55.91 35.05C56.06 35.16 56.21 35.26 56.37 35.36C56.53 35.45 56.69 35.54 56.86 35.63C57.02 35.71 57.19 35.79 57.37 35.85C57.54 35.92 57.71 35.98 57.89 36.03C58.07 36.09 58.25 36.13 58.43 36.17C58.61 36.20 58.79 36.23 58.97 36.24C59.15 36.26 59.35 36.27 59.53 36.27C59.70 36.27 59.86 36.26 60.03 36.25C60.20 36.23 60.37 36.21 60.53 36.18C60.70 36.15 60.87 36.11 61.03 36.07C61.19 36.03 61.35 35.98 61.51 35.92C61.67 35.86 61.83 35.80 61.98 35.73C62.14 35.66 62.29 35.58 62.44 35.50C62.59 35.42 62.73 35.33 62.87 35.24C63.01 35.14 63.15 35.05 63.29 34.94C63.42 34.84 63.56 34.74 63.68 34.63C63.81 34.52 63.94 34.40 64.06 34.28C64.18 34.16 64.30 34.04 64.42 33.91C64.53 33.79 64.65 33.66 64.76 33.52C64.87 33.38 64.98 33.24 65.08 33.10C65.19 32.96 65.29 32.81 65.39 32.66C65.49 32.50 65.59 32.35 65.68 32.19C65.78 32.03 65.87 31.86 65.96 31.70C66.04 31.53 66.13 31.36 66.21 31.18C66.29 31.01 66.37 30.83 66.44 30.65C66.52 30.47 66.59 30.28 66.65 30.10C66.72 29.91 66.78 29.72 66.84 29.53C66.90 29.33 66.96 29.14 67.01 28.94C67.06 28.74 67.11 28.54 67.15 28.34C67.20 28.14 67.24 27.93 67.27 27.72C67.31 27.51 67.34 27.30 67.37 27.09C67.40 26.88 67.42 26.67 67.44 26.45C67.45 26.23 67.47 26.01 67.48 25.79C67.49 25.57 67.49 25.33 67.49 25.13Z"/></g></svg>