<svg xmlns="http://www.w3.org/2000/svg" viewBox="0 0 1280 720" font-family="Inter, 'Segoe UI', system-ui, -apple-system, sans-serif"><title>MeowtionAI_slide07.svg</title><defs><marker id="arrow" viewBox="0 0 10 10" refX="9" refY="5" markerWidth="7" markerHeight="7" orient="auto-start-end"><path d="M0,0 L10,5 L0,10 z" fill="#A25CB3"/></marker><marker id="arrowstart" viewBox="0 0 10 10" refX="1" refY="5" markerWidth="7" markerHeight="7" orient="auto-start-end"><path d="M10,0 L0,5 L10,10 z" fill="#A25CB3"/></marker></defs><polyline points="120.0,387.3 125.8,388.2 131.6,397.6 137.5,419.9 143.3,392.1 149.1,397.4 154.9,378.0 160.8,375.1 166.6,381.6 172.4,372.9 178.2,393.4 184.1,396.0 189.9,407.2 195.7,409.7 201.5,396.7 207.3,393.8 213.2,394.0 219.0,355.6 224.8,381.4 230.6,374.9 236.5,378.1 242.3,394.2 248.1,390.5 253.9,410.6 259.7,414.6 265.6,390.3 271.4,397.6 277.2,364.8 283.0,353.4 288.9,356.6 294.7,373.3 300.5,370.8 306.3,380.8 312.2,417.0 318.0,415.0 323.8,407.6 329.6,405.3 335.4,370.6 341.3,363.1 347.1,367.1 352.9,357.6 358.7,361.7 364.6,370.2 370.4,390.5 376.2,404.0 382.0,419.5 387.8,387.0 393.7,390.2 399.5,381.8 405.3,383.3 411.1,354.5 417.0,372.3 422.8,373.0 428.6,386.2 434.4,390.0 440.3,403.1 446.1,410.4 451.9,393.2 457.7,367.5 463.5,376.7 469.4,381.7 475.2,360.3 481.0,376.1 486.8,397.1 492.7,389.7 498.5,389.7 504.3,404.5 510.1,402.7 515.9,401.8 521.8,365.1 527.6,354.7 533.4,369.7 539.2,364.5 545.1,369.1 550.9,378.1 556.7,387.5 562.5,399.8 568.4,397.5 574.2,396.1 580.0,375.2" fill="none" stroke="#6B7280" stroke-width="2.5"/><line x1="600" y1="385" x2="700" y2="385" stroke="#A25CB3" stroke-width="2.5" marker-end="url(#arrow)"/><rect x="700" y="330" width="240" height="110" rx="10" ry="10" fill="#F7EFF8" stroke="#BC7BC2" stroke-width="2"/><text x="820.0" y="383.0" text-anchor="middle" font-size="26" font-weight="600" fill="#A25CB3">IMU model</text><text x="820.0" y="415.0" text-anchor="middle" font-size="18" fill="#6B7280">every window</text></svg>