<svg xmlns="http://www.w3.org/2000/svg" viewBox="0 0 1280 720" font-family="Inter, 'Segoe UI', system-ui, -apple-system, sans-serif"><title>MeowtionAI_slide21.svg</title><defs><marker id="arrow" viewBox="0 0 10 10" refX="9" refY="5" markerWidth="7" markerHeight="7" orient="auto-start-end"><path d="M0,0 L10,5 L0,10 z" fill="#A25CB3"/></marker><marker id="arrowstart" viewBox="0 0 10 10" refX="1" refY="5" markerWidth="7" markerHeight="7" orient="auto-start-end"><path d="M10,0 L0,5 L10,10 z" fill="#A25CB3"/></marker></defs><rect x="70.0" y="320" width="213.6" height="112" rx="10" ry="10" fill="#FFFFFF" stroke="#E6E7EC" stroke-width="2"/><text x="176.8" y="375.5" text-anchor="middle" font-size="27" font-weight="600" fill="#1B1B2B">Capture</text><text x="176.8" y="408.5" text-anchor="middle" font-size="16" fill="#6B7280">clips on collar</text><rect x="301.6" y="320" width="213.6" height="112" rx="10" ry="10" fill="#FFFFFF" stroke="#E6E7EC" stroke-width="2"/><text x="408.40000000000003" y="375.5" text-anchor="middle" font-size="27" font-weight="600" fill="#1B1B2B">Label</text><text x="408.40000000000003" y="408.5" text-anchor="middle" font-size="16" fill="#6B7280">in dashboard</text><line x1="282.6" y1="376.0" x2="300.6" y2="376.0" stroke="#A25CB3" stroke-width="2.5" marker-end="url(#arrow)"/><rect x="533.2" y="320" width="213.6" height="112" rx="10" ry="10" fill="#F7EFF8" stroke="#BC7BC2" stroke-width="2"/><text x="640.0" y="375.5" text-anchor="middle" font-size="27" font-weight="600" fill="#A25CB3">Train</text><text x="640.0" y="408.5" text-anchor="middle" font-size="16" fill="#6B7280">cloud function</text><line x1="514.2" y1="376.0" x2="532.2" y2="376.0" stroke="#A25CB3" stroke-width="2.5" marker-end="url(#arrow)"/><rect x="764.8" y="320" width="213.6" height="112" rx="10" ry="10" fill="#FFFFFF" stroke="#E6E7EC" stroke-width="2"/><text x="871.5999999999999" y="375.5" text-anchor="middle" font-size="27" font-weight="600" fill="#1B1B2B">Deliver</text><text x="871.5999999999999" y="408.5" text-anchor="middle" font-size="16" fill="#6B7280">OTA to collar</text><line x1="745.8" y1="376.0" x2="763.8" y2="376.0" stroke="#A25CB3" stroke-width="2.5" marker-end="url(#arrow)"/><rect x="996.4" y="320" width="213.6" height="112" rx="10" ry="10" fill="#FFFFFF" stroke="#E6E7EC" stroke-width="2"/><text x="1103.2" y="375.5" text-anchor="middle" font-size="27" font-weight="600" fill="#1B1B2B">Run</text><text x="1103.2" y="408.5" text-anchor="middle" font-size="16" fill="#6B7280">on-device</text><line x1="977.4" y1="376.0" x2="995.4" y2="376.0" stroke="#A25CB3" stroke-width="2.5" marker-end="url(#arrow)"/><path d="M 1103.2 432 V 502 H 32 V 376.0 H 68" fill="none" stroke="#A25CB3" stroke-width="2.5" marker-end="url(#arrow)"/></svg>