<svg xmlns="http://www.w3.org/2000/svg" viewBox="0 0 1280 720" font-family="Inter, 'Segoe UI', system-ui, -apple-system, sans-serif"><title>MeowtionIntro_slide24.svg</title><defs><marker id="arrow" viewBox="0 0 10 10" refX="9" refY="5" markerWidth="7" markerHeight="7" orient="auto-start-end"><path d="M0,0 L10,5 L0,10 z" fill="#A25CB3"/></marker><marker id="arrowstart" viewBox="0 0 10 10" refX="1" refY="5" markerWidth="7" markerHeight="7" orient="auto-start-end"><path d="M10,0 L0,5 L10,10 z" fill="#A25CB3"/></marker></defs><rect x="360" y="250" width="560" height="120" rx="10" ry="10" fill="#F7EFF8" stroke="#BC7BC2" stroke-width="2"/><text x="640.0" y="324.0" text-anchor="middle" font-size="34" font-weight="600" fill="#A25CB3">Live dashboard</text><rect x="360" y="410" width="120" height="110" rx="10" ry="10" fill="#FFFFFF" stroke="#E6E7EC" stroke-width="2"/><text x="420.0" y="461.5" text-anchor="middle" font-size="20" font-weight="600" fill="#1B1B2B">Eating</text><text x="420.0" y="487.5" text-anchor="middle" font-size="15" fill="#6B7280">min/day</text><rect x="510" y="410" width="120" height="110" rx="10" ry="10" fill="#FFFFFF" stroke="#E6E7EC" stroke-width="2"/><text x="570.0" y="461.5" text-anchor="middle" font-size="20" font-weight="600" fill="#1B1B2B">Drinking</text><text x="570.0" y="487.5" text-anchor="middle" font-size="15" fill="#6B7280">min/day</text><rect x="660" y="410" width="120" height="110" rx="10" ry="10" fill="#FFFFFF" stroke="#E6E7EC" stroke-width="2"/><text x="720.0" y="461.5" text-anchor="middle" font-size="20" font-weight="600" fill="#1B1B2B">Resting</text><text x="720.0" y="487.5" text-anchor="middle" font-size="15" fill="#6B7280">min/day</text><rect x="810" y="410" width="120" height="110" rx="10" ry="10" fill="#FFFFFF" stroke="#E6E7EC" stroke-width="2"/><text x="870.0" y="461.5" text-anchor="middle" font-size="20" font-weight="600" fill="#1B1B2B">Activity</text><text x="870.0" y="487.5" text-anchor="middle" font-size="15" fill="#6B7280">timeline</text></svg>