<svg xmlns="http://www.w3.org/2000/svg" viewBox="0 0 1280 720" font-family="Inter, 'Segoe UI', system-ui, -apple-system, sans-serif"><title>MeowtionIntro_slide12.svg</title><defs><marker id="arrow" viewBox="0 0 10 10" refX="9" refY="5" markerWidth="7" markerHeight="7" orient="auto-start-end"><path d="M0,0 L10,5 L0,10 z" fill="#A25CB3"/></marker><marker id="arrowstart" viewBox="0 0 10 10" refX="1" refY="5" markerWidth="7" markerHeight="7" orient="auto-start-end"><path d="M10,0 L0,5 L10,10 z" fill="#A25CB3"/></marker></defs><rect x="64" y="300" width="200" height="92" rx="10" ry="10" fill="#FFFFFF" stroke="#E6E7EC" stroke-width="2"/><text x="164.0" y="340.0" text-anchor="middle" font-size="26" font-weight="600" fill="#1B1B2B">Motion</text><text x="164.0" y="372.0" text-anchor="middle" font-size="26" font-weight="600" fill="#1B1B2B">stream</text><line x1="264" y1="346" x2="348" y2="346" stroke="#A25CB3" stroke-width="2.5" marker-end="url(#arrow)"/><rect x="348" y="300" width="200" height="92" rx="10" ry="10" fill="#FFFFFF" stroke="#E6E7EC" stroke-width="2"/><text x="448.0" y="344.0" text-anchor="middle" font-size="26" font-weight="600" fill="#1B1B2B">IMU model</text><text x="448.0" y="376.0" text-anchor="middle" font-size="18" fill="#6B7280">always on</text><line x1="548" y1="346" x2="628" y2="346" stroke="#A25CB3" stroke-width="2.5" marker-end="url(#arrow)"/><polygon points="735,271.0 830.0,346 735,421.0 640.0,346" fill="#F8F1F9" stroke="#BC7BC2" stroke-width="2"/><text x="735" y="352.0" text-anchor="middle" font-size="18" fill="#1B1B2B">confident?</text><line x1="830" y1="346" x2="1000" y2="346" stroke="#A25CB3" stroke-width="2.5" marker-end="url(#arrow)"/><text x="915.0" y="338.0" text-anchor="middle" font-size="18" fill="#6B7280">yes</text><rect x="1000" y="300" width="216" height="92" rx="10" ry="10" fill="#F7EFF8" stroke="#BC7BC2" stroke-width="2"/><text x="1108.0" y="340.0" text-anchor="middle" font-size="26" font-weight="600" fill="#A25CB3">Detected</text><text x="1108.0" y="372.0" text-anchor="middle" font-size="26" font-weight="600" fill="#A25CB3">behaviour</text><line x1="735" y1="421" x2="735" y2="520" stroke="#A25CB3" stroke-width="2.5" marker-end="url(#arrow)"/><text x="735.0" y="462.5" text-anchor="middle" font-size="18" fill="#6B7280">no</text><rect x="630" y="520" width="210" height="92" rx="10" ry="10" fill="#FFFFFF" stroke="#E6E7EC" stroke-width="2"/><text x="735.0" y="564.0" text-anchor="middle" font-size="26" font-weight="600" fill="#1B1B2B">Audio model</text><text x="735.0" y="596.0" text-anchor="middle" font-size="18" fill="#6B7280">short confirm</text><line x1="840" y1="566" x2="1108" y2="566" stroke="#A25CB3" stroke-width="2.5" marker-end="url(#arrow)"/><line x1="1108" y1="566" x2="1108" y2="392" stroke="#A25CB3" stroke-width="2.5" marker-end="url(#arrow)"/></svg>