<svg xmlns="http://www.w3.org/2000/svg" viewBox="0 0 1280 720" font-family="Inter, 'Segoe UI', system-ui, -apple-system, sans-serif"><title>MeowtionIntro_slide04.svg</title><defs><marker id="arrow" viewBox="0 0 10 10" refX="9" refY="5" markerWidth="7" markerHeight="7" orient="auto-start-end"><path d="M0,0 L10,5 L0,10 z" fill="#A25CB3"/></marker><marker id="arrowstart" viewBox="0 0 10 10" refX="1" refY="5" markerWidth="7" markerHeight="7" orient="auto-start-end"><path d="M10,0 L0,5 L10,10 z" fill="#A25CB3"/></marker></defs><rect x="70.0" y="320" width="232.5" height="120" rx="10" ry="10" fill="#F7EFF8" stroke="#BC7BC2" stroke-width="2"/><text x="186.25" y="378.5" text-anchor="middle" font-size="27" font-weight="600" fill="#A25CB3">Smart collar</text><text x="186.25" y="411.5" text-anchor="middle" font-size="18" fill="#6B7280">on Rupert</text><rect x="372.5" y="320" width="232.5" height="120" rx="10" ry="10" fill="#FFFFFF" stroke="#E6E7EC" stroke-width="2"/><text x="488.75" y="378.5" text-anchor="middle" font-size="27" font-weight="600" fill="#1B1B2B">Station</text><text x="488.75" y="411.5" text-anchor="middle" font-size="18" fill="#6B7280">relays</text><line x1="301.5" y1="380.0" x2="371.5" y2="380.0" stroke="#A25CB3" stroke-width="2.5" marker-end="url(#arrow)"/><text x="336.5" y="372.0" text-anchor="middle" font-size="18" fill="#6B7280">BLE</text><rect x="675.0" y="320" width="232.5" height="120" rx="10" ry="10" fill="#FFFFFF" stroke="#E6E7EC" stroke-width="2"/><text x="791.25" y="378.5" text-anchor="middle" font-size="27" font-weight="600" fill="#1B1B2B">Cloud</text><text x="791.25" y="411.5" text-anchor="middle" font-size="18" fill="#6B7280">Firebase</text><line x1="604.0" y1="380.0" x2="674.0" y2="380.0" stroke="#A25CB3" stroke-width="2.5" marker-end="url(#arrow)"/><text x="639.0" y="372.0" text-anchor="middle" font-size="18" fill="#6B7280">Wi-Fi</text><rect x="977.5" y="320" width="232.5" height="120" rx="10" ry="10" fill="#F7EFF8" stroke="#BC7BC2" stroke-width="2"/><text x="1093.75" y="378.5" text-anchor="middle" font-size="27" font-weight="600" fill="#A25CB3">Live dashboard</text><text x="1093.75" y="411.5" text-anchor="middle" font-size="18" fill="#6B7280">habits</text><line x1="906.5" y1="380.0" x2="976.5" y2="380.0" stroke="#A25CB3" stroke-width="2.5" marker-end="url(#arrow)"/></svg>