<svg xmlns="http://www.w3.org/2000/svg" viewBox="0 0 1280 720" font-family="Inter, 'Segoe UI', system-ui, -apple-system, sans-serif"><title>MeowtionAI_slide05.svg</title><defs><marker id="arrow" viewBox="0 0 10 10" refX="9" refY="5" markerWidth="7" markerHeight="7" orient="auto-start-end"><path d="M0,0 L10,5 L0,10 z" fill="#A25CB3"/></marker><marker id="arrowstart" viewBox="0 0 10 10" refX="1" refY="5" markerWidth="7" markerHeight="7" orient="auto-start-end"><path d="M10,0 L0,5 L10,10 z" fill="#A25CB3"/></marker></defs><rect x="64" y="250" width="200" height="90" rx="10" ry="10" fill="#F7EFF8" stroke="#BC7BC2" stroke-width="2"/><text x="164.0" y="305.0" text-anchor="middle" font-size="26" font-weight="600" fill="#A25CB3">Eating</text><rect x="64" y="470" width="200" height="90" rx="10" ry="10" fill="#F7EFF8" stroke="#BC7BC2" stroke-width="2"/><text x="164.0" y="525.0" text-anchor="middle" font-size="26" font-weight="600" fill="#A25CB3">Drinking</text><text x="420" y="230" text-anchor="middle" font-size="20" font-weight="600" fill="#6B7280">motion (IMU)</text><polyline points="300.0,296.7 306.1,300.5 312.2,307.1 318.3,314.2 324.4,314.8 330.5,290.1 336.6,296.4 342.7,289.3 348.8,274.2 354.9,279.5 361.0,287.6 367.1,305.0 373.2,315.1 379.3,316.4 385.4,300.3 391.5,292.9 397.6,291.0 403.7,287.7 409.8,280.6 415.9,275.2 422.0,277.4 428.1,296.7 434.2,298.4 440.3,317.6 446.4,311.6 452.5,304.6 458.6,305.1 464.7,288.4 470.8,286.2 476.9,278.2 483.1,281.5 489.2,289.1 495.3,306.3 501.4,301.6 507.5,317.2 513.6,312.8 519.7,303.6 525.8,284.5 531.9,279.8 538.0,286.4 544.1,282.3 550.2,285.2 556.3,287.5 562.4,311.8 568.5,304.1 574.6,310.1 580.7,303.5 586.8,291.1 592.9,280.9 599.0,273.3 605.1,274.9 611.2,288.9 617.3,286.8 623.4,302.6 629.5,310.4 635.6,318.0 641.7,310.9 647.8,297.6 653.9,282.3 660.0,283.2" fill="none" stroke="#6B7280" stroke-width="2.5"/><polyline points="300.0,516.9 306.1,520.2 312.2,526.8 318.3,534.6 324.4,535.7 330.5,509.4 336.6,517.3 342.7,510.2 348.8,493.8 354.9,499.2 361.0,507.3 367.1,525.5 373.2,535.9 379.3,536.9 385.4,519.4 391.5,512.0 397.6,510.8 403.7,508.1 409.8,500.8 415.9,494.7 422.0,496.6 428.1,516.8 434.2,517.8 440.3,538.3 446.4,531.7 452.5,524.5 458.6,526.0 464.7,508.5 470.8,506.7 476.9,498.1 483.1,501.4 489.2,508.9 495.3,526.9 501.4,521.0 507.5,537.8 513.6,533.2 519.7,523.8 525.8,503.8 531.9,499.4 538.0,507.2 544.1,502.5 550.2,505.1 556.3,506.7 562.4,532.5 568.5,523.5 574.6,530.1 580.7,523.3 586.8,510.6 592.9,500.3 599.0,492.6 605.1,494.5 611.2,509.4 617.3,506.3 623.4,522.8 629.5,530.6 635.6,538.7 641.7,531.1 647.8,517.3 653.9,501.5 660.0,503.2" fill="none" stroke="#6B7280" stroke-width="2.5"/><text x="900" y="230" text-anchor="middle" font-size="20" font-weight="600" fill="#6B7280">sound (audio)</text><polyline points="740.0,297.6 746.1,286.3 752.2,298.5 758.3,295.3 764.4,314.1 770.5,296.2 776.6,264.4 782.7,279.3 788.8,294.3 794.9,305.2 801.0,290.7 807.1,301.2 813.2,307.0 819.3,311.7 825.4,319.1 831.5,271.9 837.6,280.9 843.7,273.5 849.8,271.1 855.9,265.2 862.0,268.5 868.1,324.3 874.2,302.6 880.3,311.0 886.4,284.3 892.5,279.9 898.6,307.4 904.7,305.4 910.8,270.6 916.9,248.1 923.1,299.4 929.2,262.3 935.3,301.6 941.4,328.9 947.5,329.1 953.6,316.9 959.7,278.3 965.8,277.3 971.9,266.6 978.0,259.4 984.1,300.2 990.2,304.5 996.3,327.2 1002.4,318.3 1008.5,333.0 1014.6,308.3 1020.7,334.2 1026.8,265.4 1032.9,270.6 1039.0,303.9 1045.1,251.4 1051.2,270.0 1057.3,278.4 1063.4,271.7 1069.5,320.9 1075.6,280.9 1081.7,334.1 1087.8,316.3 1093.9,273.3 1100.0,306.7" fill="none" stroke="#A25CB3" stroke-width="2.5"/><polyline points="740.0,537.4 746.1,483.8 752.2,543.3 758.3,564.6 764.4,536.6 770.5,486.2 776.6,536.3 782.7,490.9 788.8,518.4 794.9,481.1 801.0,549.7 807.1,490.6 813.2,543.5 819.3,547.5 825.4,535.3 831.5,534.7 837.6,535.6 843.7,527.4 849.8,458.6 855.9,499.4 862.0,514.4 868.1,500.7 874.2,530.4 880.3,502.1 886.4,523.1 892.5,555.8 898.6,491.7 904.7,528.6 910.8,511.3 916.9,535.0 923.1,490.4 929.2,530.7 935.3,490.2 941.4,537.8 947.5,565.5 953.6,560.3 959.7,482.9 965.8,519.5 971.9,527.7 978.0,466.0 984.1,488.2 990.2,526.9 996.3,530.7 1002.4,516.3 1008.5,508.4 1014.6,554.5 1020.7,551.8 1026.8,518.4 1032.9,513.1 1039.0,541.4 1045.1,517.3 1051.2,532.1 1057.3,477.0 1063.4,497.1 1069.5,542.1 1075.6,565.4 1081.7,493.2 1087.8,527.1 1093.9,530.3 1100.0,538.3" fill="none" stroke="#A25CB3" stroke-width="2.5"/><text x="665" y="300" text-anchor="middle" font-size="40" font-weight="700" fill="#6B7280">≈</text><text x="665" y="520" text-anchor="middle" font-size="40" font-weight="700" fill="#6B7280">≈</text><text x="1105" y="300" text-anchor="middle" font-size="40" font-weight="700" fill="#A25CB3">≠</text><text x="1105" y="520" text-anchor="middle" font-size="40" font-weight="700" fill="#A25CB3">≠</text></svg>