<svg xmlns="http://www.w3.org/2000/svg" viewBox="0 0 1280 720" font-family="Inter, 'Segoe UI', system-ui, -apple-system, sans-serif"><title>MeowtionIntro_slide18.svg</title><defs><marker id="arrow" viewBox="0 0 10 10" refX="9" refY="5" markerWidth="7" markerHeight="7" orient="auto-start-end"><path d="M0,0 L10,5 L0,10 z" fill="#A25CB3"/></marker><marker id="arrowstart" viewBox="0 0 10 10" refX="1" refY="5" markerWidth="7" markerHeight="7" orient="auto-start-end"><path d="M10,0 L0,5 L10,10 z" fill="#A25CB3"/></marker></defs><rect x="60" y="330" width="220" height="110" rx="10" ry="10" fill="#F7EFF8" stroke="#BC7BC2" stroke-width="2"/><text x="170.0" y="383.0" text-anchor="middle" font-size="26" font-weight="600" fill="#A25CB3">Collar</text><text x="170.0" y="415.0" text-anchor="middle" font-size="18" fill="#6B7280">real device</text><line x1="280" y1="385" x2="350" y2="385" stroke="#A25CB3" stroke-width="2.5" marker-end="url(#arrow)"/><rect x="350" y="330" width="220" height="110" rx="10" ry="10" fill="#FFFFFF" stroke="#E6E7EC" stroke-width="2"/><text x="460.0" y="383.0" text-anchor="middle" font-size="26" font-weight="600" fill="#1B1B2B">Station</text><text x="460.0" y="415.0" text-anchor="middle" font-size="18" fill="#6B7280">real device</text><line x1="570" y1="385" x2="640" y2="385" stroke="#A25CB3" stroke-width="2.5" marker-end="url(#arrow)"/><rect x="640" y="330" width="220" height="110" rx="10" ry="10" fill="#FFFFFF" stroke="#E6E7EC" stroke-width="2"/><text x="750.0" y="383.0" text-anchor="middle" font-size="26" font-weight="600" fill="#1B1B2B">Cloud</text><text x="750.0" y="415.0" text-anchor="middle" font-size="18" fill="#6B7280">live</text><line x1="860" y1="385" x2="930" y2="385" stroke="#A25CB3" stroke-width="2.5" marker-end="url(#arrow)"/><rect x="930" y="330" width="240" height="110" rx="10" ry="10" fill="#F7EFF8" stroke="#BC7BC2" stroke-width="2"/><text x="1050.0" y="383.0" text-anchor="middle" font-size="26" font-weight="600" fill="#A25CB3">Dashboard</text><text x="1050.0" y="415.0" text-anchor="middle" font-size="18" fill="#6B7280">live</text></svg>