<svg xmlns="http://www.w3.org/2000/svg" viewBox="0 0 1280 720" font-family="Inter, 'Segoe UI', system-ui, -apple-system, sans-serif"><title>MeowtionAI_slide29.svg</title><defs><marker id="arrow" viewBox="0 0 10 10" refX="9" refY="5" markerWidth="7" markerHeight="7" orient="auto-start-end"><path d="M0,0 L10,5 L0,10 z" fill="#A25CB3"/></marker><marker id="arrowstart" viewBox="0 0 10 10" refX="1" refY="5" markerWidth="7" markerHeight="7" orient="auto-start-end"><path d="M10,0 L0,5 L10,10 z" fill="#A25CB3"/></marker></defs><rect x="60" y="330" width="200" height="110" rx="10" ry="10" fill="#FFFFFF" stroke="#E6E7EC" stroke-width="2"/><text x="160.0" y="383.0" text-anchor="middle" font-size="26" font-weight="600" fill="#1B1B2B">Trigger</text><text x="160.0" y="415.0" text-anchor="middle" font-size="18" fill="#6B7280">dashboard</text><line x1="260" y1="385" x2="330" y2="385" stroke="#A25CB3" stroke-width="2.5" marker-end="url(#arrow)"/><rect x="330" y="330" width="200" height="110" rx="10" ry="10" fill="#F7EFF8" stroke="#BC7BC2" stroke-width="2"/><text x="430.0" y="383.0" text-anchor="middle" font-size="26" font-weight="600" fill="#A25CB3">Train</text><text x="430.0" y="415.0" text-anchor="middle" font-size="18" fill="#6B7280">cloud</text><line x1="530" y1="385" x2="600" y2="385" stroke="#A25CB3" stroke-width="2.5" marker-end="url(#arrow)"/><rect x="600" y="330" width="200" height="110" rx="10" ry="10" fill="#FFFFFF" stroke="#E6E7EC" stroke-width="2"/><text x="700.0" y="383.0" text-anchor="middle" font-size="26" font-weight="600" fill="#1B1B2B">Deliver</text><text x="700.0" y="415.0" text-anchor="middle" font-size="18" fill="#6B7280">OTA</text><line x1="800" y1="385" x2="870" y2="385" stroke="#A25CB3" stroke-width="2.5" marker-end="url(#arrow)"/><rect x="870" y="330" width="200" height="110" rx="10" ry="10" fill="#F7EFF8" stroke="#BC7BC2" stroke-width="2"/><text x="970.0" y="383.0" text-anchor="middle" font-size="26" font-weight="600" fill="#A25CB3">Run</text><text x="970.0" y="415.0" text-anchor="middle" font-size="18" fill="#6B7280">on collar</text></svg>