<svg xmlns="http://www.w3.org/2000/svg" viewBox="0 0 1280 720" font-family="Inter, 'Segoe UI', system-ui, -apple-system, sans-serif"><title>MeowtionAI_slide08.svg</title><defs><marker id="arrow" viewBox="0 0 10 10" refX="9" refY="5" markerWidth="7" markerHeight="7" orient="auto-start-end"><path d="M0,0 L10,5 L0,10 z" fill="#A25CB3"/></marker><marker id="arrowstart" viewBox="0 0 10 10" refX="1" refY="5" markerWidth="7" markerHeight="7" orient="auto-start-end"><path d="M10,0 L0,5 L10,10 z" fill="#A25CB3"/></marker></defs><rect x="80" y="330" width="220" height="110" rx="10" ry="10" fill="#FFFFFF" stroke="#E6E7EC" stroke-width="2"/><text x="190.0" y="367.0" text-anchor="middle" font-size="26" font-weight="600" fill="#1B1B2B">Motion</text><text x="190.0" y="399.0" text-anchor="middle" font-size="26" font-weight="600" fill="#1B1B2B">stream</text><text x="190.0" y="431.0" text-anchor="middle" font-size="18" fill="#6B7280">104 Hz IMU</text><polyline points="320.0,387.6 325.1,388.8 330.2,393.4 335.3,395.4 340.3,397.2 345.4,385.0 350.5,377.4 355.6,368.1 360.7,372.3 365.8,366.2 370.8,387.0 375.9,397.4 381.0,386.9 386.1,406.6 391.2,400.0 396.3,390.2 401.4,393.1 406.4,374.4 411.5,366.1 416.6,377.8 421.7,376.2 426.8,382.6 431.9,402.9 436.9,388.5 442.0,392.7 447.1,395.8 452.2,378.3 457.3,388.4 462.4,374.7 467.5,376.4 472.5,370.5 477.6,383.3 482.7,388.7 487.8,390.9 492.9,405.2 498.0,401.5 503.1,387.3 508.1,372.3 513.2,372.5 518.3,367.8 523.4,363.3 528.5,383.5 533.6,376.2 538.6,392.0 543.7,403.2 548.8,407.3 553.9,395.7 559.0,392.6 564.1,381.4 569.2,367.8 574.2,370.0 579.3,367.0 584.4,376.2 589.5,397.4 594.6,386.2 599.7,393.5 604.7,395.6 609.8,381.5 614.9,390.6 620.0,372.1" fill="none" stroke="#6B7280" stroke-width="2.5"/><line x1="640" y1="385" x2="740" y2="385" stroke="#A25CB3" stroke-width="2.5" marker-end="url(#arrow)"/><rect x="740" y="330" width="240" height="110" rx="10" ry="10" fill="#F7EFF8" stroke="#BC7BC2" stroke-width="2"/><text x="860.0" y="395.0" text-anchor="middle" font-size="26" font-weight="600" fill="#A25CB3">IMU model</text><line x1="980" y1="385" x2="1080" y2="385" stroke="#A25CB3" stroke-width="2.5" marker-end="url(#arrow)"/><rect x="1040" y="330" width="176" height="110" rx="10" ry="10" fill="#FFFFFF" stroke="#E6E7EC" stroke-width="2"/><text x="1128.0" y="394.0" text-anchor="middle" font-size="24" font-weight="600" fill="#1B1B2B">class</text></svg>