<svg xmlns="http://www.w3.org/2000/svg" viewBox="0 0 100 100" width="100" height="100"><circle cx="50" cy="50" r="50" fill="#bc7bc2"/><g fill="#1b1b2b"><path d="M30.06 37.48C30.00 37.31 29.95 37.16 29.89 37.00C29.84 36.84 29.77 36.69 29.71 36.53C29.65 36.37 29.58 36.22 29.51 36.06C29.44 35.91 29.37 35.75 29.29 35.60C29.22 35.45 29.14 35.30 29.06 35.15C28.98 35.00 28.90 34.85 28.81 34.71C28.73 34.56 28.64 34.42 28.54 34.28C28.45 34.13 28.36 33.99 28.26 33.85C28.16 33.72 28.06 33.58 27.96 33.44C27.86 33.31 27.75 33.18 27.64 33.05C27.53 32.92 27.42 32.79 27.31 32.66C27.20 32.54 27.08 32.42 26.96 32.30C26.84 32.18 26.72 32.06 26.60 31.94C26.47 31.83 26.35 31.72 26.22 31.61C26.09 31.50 25.95 31.39 25.82 31.29C25.69 31.19 25.55 31.09 25.41 31.00C25.27 30.90 25.13 30.81 24.98 30.72C24.84 30.63 24.69 30.55 24.54 30.47C24.39 30.39 24.24 30.32 24.09 30.25C23.94 30.18 23.78 30.11 23.63 30.05C23.47 29.99 23.31 29.93 23.15 29.88C22.99 29.83 22.83 29.79 22.67 29.75C22.50 29.71 22.34 29.67 22.17 29.65C22.01 29.62 21.84 29.60 21.68 29.58C21.51 29.57 21.34 29.56 21.17 29.56C21.01 29.55 20.84 29.56 20.67 29.57C20.51 29.58 20.34 29.60 20.18 29.62C20.01 29.65 19.85 29.68 19.69 29.72C19.52 29.76 19.36 29.80 19.20 29.85C19.05 29.90 18.91 29.95 18.77 30.01C18.62 30.07 18.48 30.14 18.34 30.21C18.20 30.28 18.07 30.35 17.93 30.43C17.80 30.51 17.67 30.60 17.55 30.69C17.42 30.78 17.30 30.88 17.18 30.98C17.06 31.07 16.94 31.18 16.83 31.29C16.72 31.39 16.61 31.51 16.50 31.62C16.40 31.73 16.30 31.85 16.20 31.97C16.10 32.10 16.01 32.22 15.92 32.35C15.83 32.47 15.74 32.60 15.66 32.74C15.58 32.87 15.50 33.00 15.43 33.14C15.35 33.28 15.28 33.42 15.21 33.56C15.15 33.70 15.08 33.85 15.02 33.99C14.96 34.14 14.90 34.29 14.85 34.44C14.79 34.60 14.74 34.75 14.70 34.91C14.65 35.06 14.61 35.22 14.56 35.39C14.52 35.55 14.49 35.71 14.45 35.88C14.42 36.04 14.39 36.21 14.37 36.38C14.34 36.55 14.32 36.72 14.30 36.90C14.28 37.07 14.26 37.24 14.25 37.42C14.24 37.60 14.23 37.77 14.23 37.95C14.23 38.13 14.23 38.31 14.23 38.49C14.23 38.68 14.24 38.86 14.25 39.04C14.27 39.22 14.28 39.41 14.30 39.59C14.32 39.78 14.35 39.96 14.37 40.15C14.40 40.34 14.43 40.52 14.47 40.71C14.51 40.90 14.55 41.09 14.59 41.28C14.63 41.46 14.68 41.65 14.74 41.84C14.79 42.03 14.85 42.23 14.91 42.41C14.96 42.58 15.01 42.73 15.07 42.89C15.13 43.05 15.19 43.21 15.26 43.36C15.32 43.52 15.39 43.68 15.46 43.83C15.52 43.98 15.60 44.14 15.67 44.29C15.75 44.44 15.82 44.59 15.91 44.74C15.99 44.89 16.07 45.04 16.16 45.18C16.24 45.33 16.33 45.47 16.42 45.62C16.51 45.76 16.61 45.90 16.71 46.04C16.80 46.18 16.90 46.31 17.01 46.45C17.11 46.58 17.22 46.71 17.32 46.84C17.43 46.97 17.54 47.10 17.66 47.23C17.77 47.35 17.89 47.48 18.01 47.60C18.12 47.72 18.25 47.83 18.37 47.95C18.49 48.06 18.62 48.17 18.75 48.28C18.88 48.39 19.01 48.50 19.15 48.60C19.28 48.70 19.42 48.80 19.56 48.90C19.70 48.99 19.84 49.08 19.98 49.17C20.13 49.26 20.27 49.34 20.42 49.42C20.57 49.50 20.72 49.57 20.88 49.65C21.03 49.72 21.18 49.78 21.34 49.84C21.50 49.90 21.66 49.96 21.82 50.01C21.98 50.06 22.14 50.10 22.30 50.14C22.46 50.18 22.63 50.22 22.79 50.24C22.96 50.27 23.12 50.29 23.29 50.31C23.46 50.32 23.63 50.33 23.79 50.34C23.96 50.34 24.13 50.33 24.29 50.32C24.46 50.31 24.62 50.29 24.79 50.27C24.95 50.24 25.12 50.21 25.28 50.17C25.44 50.14 25.61 50.09 25.76 50.04C25.92 49.99 26.06 49.94 26.20 49.88C26.34 49.82 26.49 49.75 26.62 49.68C26.76 49.61 26.90 49.54 27.03 49.46C27.16 49.38 27.30 49.29 27.42 49.20C27.55 49.11 27.67 49.02 27.79 48.92C27.91 48.82 28.03 48.71 28.14 48.61C28.25 48.50 28.36 48.39 28.46 48.27C28.57 48.16 28.67 48.04 28.77 47.92C28.86 47.80 28.96 47.67 29.05 47.54C29.14 47.42 29.22 47.29 29.30 47.16C29.39 47.02 29.46 46.89 29.54 46.75C29.61 46.61 29.68 46.47 29.75 46.33C29.82 46.19 29.88 46.05 29.94 45.90C30.01 45.75 30.06 45.60 30.12 45.45C30.17 45.30 30.22 45.14 30.27 44.98C30.32 44.83 30.36 44.67 30.40 44.51C30.44 44.34 30.48 44.18 30.51 44.01C30.55 43.85 30.58 43.68 30.60 43.51C30.63 43.34 30.65 43.17 30.67 43.00C30.69 42.82 30.70 42.65 30.71 42.47C30.73 42.30 30.73 42.12 30.74 41.94C30.74 41.76 30.74 41.58 30.74 41.40C30.73 41.22 30.72 41.03 30.71 40.85C30.70 40.67 30.68 40.48 30.66 40.30C30.64 40.11 30.62 39.93 30.59 39.74C30.57 39.55 30.53 39.37 30.50 39.18C30.46 38.99 30.42 38.80 30.38 38.62C30.33 38.43 30.28 38.24 30.23 38.05C30.18 37.86 30.12 37.66 30.06 37.48Z"/><path d="M80.80 29.85C80.64 29.80 80.50 29.76 80.35 29.73C80.20 29.69 80.04 29.66 79.89 29.63C79.74 29.61 79.58 29.59 79.43 29.58C79.27 29.56 79.12 29.56 78.96 29.56C78.81 29.55 78.65 29.56 78.50 29.57C78.34 29.58 78.19 29.60 78.03 29.62C77.88 29.64 77.72 29.66 77.57 29.69C77.42 29.73 77.27 29.76 77.12 29.80C76.97 29.84 76.82 29.89 76.67 29.94C76.53 29.99 76.38 30.05 76.24 30.10C76.09 30.16 75.95 30.23 75.81 30.29C75.67 30.36 75.53 30.43 75.39 30.51C75.25 30.58 75.12 30.66 74.98 30.74C74.84 30.83 74.71 30.92 74.58 31.01C74.44 31.10 74.31 31.19 74.18 31.29C74.05 31.39 73.92 31.50 73.79 31.60C73.66 31.71 73.54 31.82 73.41 31.94C73.29 32.05 73.17 32.17 73.04 32.29C72.92 32.41 72.80 32.54 72.69 32.67C72.57 32.80 72.46 32.93 72.34 33.06C72.23 33.20 72.12 33.34 72.01 33.48C71.90 33.63 71.80 33.77 71.69 33.92C71.59 34.07 71.49 34.22 71.39 34.38C71.29 34.53 71.20 34.69 71.10 34.85C71.01 35.01 70.92 35.18 70.84 35.34C70.75 35.51 70.66 35.68 70.58 35.86C70.50 36.03 70.42 36.20 70.35 36.38C70.27 36.56 70.20 36.74 70.13 36.93C70.07 37.11 70.00 37.31 69.94 37.48C69.88 37.66 69.84 37.81 69.79 37.97C69.75 38.13 69.70 38.30 69.66 38.46C69.62 38.63 69.58 38.79 69.55 38.96C69.51 39.12 69.48 39.29 69.45 39.46C69.42 39.62 69.40 39.79 69.38 39.96C69.35 40.13 69.33 40.29 69.32 40.46C69.30 40.63 69.29 40.80 69.28 40.97C69.27 41.14 69.27 41.31 69.26 41.48C69.26 41.65 69.26 41.82 69.26 41.99C69.27 42.16 69.28 42.32 69.29 42.49C69.30 42.66 69.31 42.83 69.33 43.00C69.35 43.17 69.37 43.34 69.40 43.50C69.42 43.67 69.45 43.84 69.49 44.00C69.52 44.17 69.56 44.33 69.60 44.50C69.64 44.66 69.68 44.82 69.73 44.99C69.78 45.15 69.83 45.31 69.89 45.47C69.95 45.63 70.01 45.78 70.07 45.94C70.14 46.09 70.21 46.25 70.28 46.40C70.35 46.55 70.43 46.70 70.51 46.85C70.60 46.99 70.68 47.14 70.77 47.28C70.87 47.42 70.96 47.56 71.06 47.69C71.16 47.83 71.26 47.96 71.37 48.09C71.48 48.22 71.60 48.34 71.71 48.46C71.83 48.58 71.95 48.69 72.08 48.80C72.20 48.92 72.34 49.02 72.47 49.12C72.60 49.22 72.74 49.32 72.88 49.40C73.02 49.49 73.17 49.58 73.31 49.65C73.46 49.73 73.61 49.80 73.77 49.86C73.92 49.93 74.08 49.99 74.24 50.04C74.39 50.09 74.53 50.13 74.69 50.17C74.84 50.20 74.99 50.23 75.14 50.26C75.30 50.28 75.45 50.30 75.61 50.31C75.76 50.33 75.92 50.33 76.07 50.34C76.23 50.34 76.38 50.33 76.54 50.32C76.69 50.31 76.85 50.30 77.00 50.28C77.16 50.25 77.31 50.23 77.46 50.20C77.61 50.17 77.76 50.13 77.91 50.09C78.06 50.05 78.21 50.00 78.36 49.95C78.51 49.90 78.65 49.85 78.80 49.79C78.94 49.73 79.08 49.67 79.22 49.60C79.37 49.53 79.50 49.46 79.64 49.38C79.78 49.31 79.92 49.23 80.05 49.15C80.19 49.06 80.32 48.98 80.46 48.88C80.59 48.79 80.72 48.70 80.85 48.60C80.99 48.50 81.11 48.40 81.24 48.29C81.37 48.18 81.50 48.07 81.62 47.96C81.75 47.84 81.87 47.72 81.99 47.60C82.11 47.48 82.23 47.35 82.35 47.22C82.46 47.10 82.58 46.96 82.69 46.83C82.80 46.69 82.91 46.55 83.02 46.41C83.13 46.27 83.24 46.12 83.34 45.97C83.44 45.82 83.54 45.67 83.64 45.51C83.74 45.36 83.84 45.20 83.93 45.04C84.02 44.88 84.11 44.71 84.20 44.55C84.29 44.38 84.37 44.21 84.45 44.04C84.53 43.86 84.61 43.69 84.68 43.51C84.76 43.33 84.83 43.15 84.90 42.97C84.97 42.78 85.04 42.58 85.09 42.41C85.15 42.23 85.19 42.08 85.24 41.92C85.29 41.76 85.33 41.59 85.37 41.43C85.41 41.27 85.45 41.10 85.49 40.93C85.52 40.77 85.55 40.60 85.58 40.44C85.61 40.27 85.63 40.10 85.66 39.93C85.68 39.77 85.70 39.60 85.71 39.43C85.73 39.26 85.74 39.09 85.75 38.92C85.76 38.75 85.77 38.58 85.77 38.41C85.77 38.24 85.77 38.07 85.77 37.91C85.76 37.74 85.76 37.57 85.75 37.40C85.73 37.23 85.72 37.06 85.70 36.89C85.68 36.72 85.66 36.56 85.64 36.39C85.61 36.22 85.58 36.06 85.55 35.89C85.52 35.72 85.48 35.56 85.44 35.40C85.40 35.23 85.35 35.07 85.30 34.91C85.25 34.74 85.20 34.58 85.14 34.42C85.09 34.27 85.03 34.11 84.96 33.95C84.90 33.80 84.83 33.64 84.75 33.49C84.68 33.34 84.60 33.19 84.52 33.04C84.44 32.90 84.35 32.75 84.26 32.61C84.17 32.47 84.07 32.33 83.97 32.20C83.87 32.06 83.77 31.93 83.66 31.80C83.55 31.68 83.44 31.55 83.32 31.43C83.20 31.31 83.08 31.20 82.96 31.09C82.83 30.98 82.70 30.87 82.56 30.77C82.43 30.67 82.29 30.58 82.15 30.49C82.01 30.40 81.87 30.32 81.72 30.24C81.57 30.16 81.42 30.09 81.27 30.03C81.11 29.96 80.95 29.90 80.80 29.85Z"/><path d="M48.44 25.13C48.44 24.94 48.44 24.78 48.43 24.61C48.43 24.43 48.42 24.26 48.41 24.08C48.40 23.91 48.38 23.73 48.36 23.56C48.35 23.39 48.32 23.21 48.30 23.04C48.28 22.87 48.25 22.69 48.22 22.52C48.19 22.35 48.16 22.18 48.12 22.01C48.09 21.84 48.05 21.67 48.01 21.50C47.97 21.33 47.92 21.16 47.87 20.99C47.82 20.82 47.77 20.66 47.72 20.49C47.66 20.32 47.61 20.16 47.54 20.00C47.48 19.83 47.42 19.67 47.35 19.51C47.28 19.35 47.21 19.19 47.14 19.03C47.06 18.87 46.99 18.72 46.91 18.56C46.83 18.41 46.74 18.26 46.65 18.11C46.57 17.96 46.47 17.81 46.38 17.66C46.29 17.52 46.19 17.37 46.09 17.23C45.98 17.09 45.88 16.95 45.77 16.81C45.66 16.68 45.55 16.55 45.43 16.42C45.32 16.29 45.20 16.16 45.07 16.04C44.95 15.92 44.82 15.80 44.69 15.68C44.56 15.57 44.43 15.46 44.29 15.35C44.16 15.25 44.01 15.15 43.87 15.05C43.73 14.96 43.58 14.87 43.43 14.78C43.28 14.70 43.13 14.62 42.97 14.55C42.81 14.48 42.65 14.41 42.49 14.35C42.33 14.29 42.16 14.24 42.00 14.19C41.83 14.15 41.67 14.11 41.50 14.08C41.33 14.05 41.16 14.03 40.99 14.01C40.82 14.00 40.64 13.99 40.47 13.99C40.31 13.99 40.16 13.99 40.00 14.01C39.85 14.02 39.69 14.04 39.53 14.06C39.38 14.09 39.22 14.12 39.07 14.16C38.92 14.20 38.77 14.24 38.62 14.29C38.47 14.34 38.32 14.40 38.18 14.46C38.03 14.52 37.89 14.59 37.75 14.66C37.61 14.73 37.47 14.81 37.33 14.89C37.20 14.97 37.07 15.06 36.94 15.15C36.81 15.24 36.68 15.33 36.56 15.43C36.44 15.53 36.31 15.63 36.20 15.74C36.08 15.84 35.96 15.95 35.85 16.06C35.74 16.18 35.63 16.29 35.52 16.41C35.42 16.53 35.31 16.65 35.21 16.78C35.10 16.91 35.00 17.04 34.91 17.17C34.81 17.31 34.71 17.45 34.62 17.59C34.52 17.73 34.43 17.87 34.35 18.02C34.26 18.17 34.17 18.32 34.09 18.48C34.01 18.63 33.93 18.79 33.85 18.95C33.77 19.11 33.70 19.27 33.63 19.44C33.56 19.61 33.49 19.78 33.42 19.95C33.36 20.12 33.30 20.30 33.24 20.47C33.18 20.65 33.12 20.83 33.07 21.01C33.02 21.19 32.97 21.38 32.93 21.56C32.88 21.75 32.84 21.94 32.80 22.13C32.76 22.32 32.73 22.51 32.70 22.71C32.67 22.90 32.64 23.10 32.62 23.30C32.59 23.50 32.57 23.70 32.56 23.90C32.54 24.10 32.53 24.30 32.52 24.51C32.51 24.71 32.51 24.94 32.51 25.13C32.51 25.32 32.51 25.48 32.52 25.65C32.52 25.83 32.53 26.00 32.54 26.18C32.55 26.35 32.57 26.53 32.59 26.70C32.60 26.87 32.63 27.05 32.65 27.22C32.67 27.39 32.70 27.56 32.73 27.74C32.76 27.91 32.79 28.08 32.83 28.25C32.86 28.42 32.90 28.59 32.94 28.76C32.98 28.93 33.03 29.10 33.08 29.27C33.13 29.43 33.18 29.60 33.23 29.77C33.29 29.93 33.34 30.10 33.41 30.26C33.47 30.43 33.53 30.59 33.60 30.75C33.67 30.91 33.74 31.07 33.81 31.23C33.89 31.38 33.96 31.54 34.04 31.70C34.12 31.85 34.21 32.00 34.30 32.15C34.38 32.30 34.48 32.45 34.57 32.60C34.66 32.74 34.76 32.89 34.86 33.03C34.97 33.17 35.07 33.31 35.18 33.44C35.29 33.58 35.40 33.71 35.52 33.84C35.63 33.97 35.75 34.10 35.88 34.22C36.00 34.34 36.13 34.46 36.26 34.57C36.39 34.69 36.52 34.80 36.66 34.90C36.79 35.01 36.94 35.11 37.08 35.21C37.22 35.30 37.37 35.39 37.52 35.47C37.67 35.56 37.82 35.64 37.98 35.71C38.14 35.78 38.30 35.85 38.46 35.91C38.62 35.97 38.79 36.02 38.95 36.07C39.12 36.11 39.28 36.15 39.45 36.18C39.62 36.21 39.79 36.23 39.96 36.25C40.13 36.26 40.31 36.27 40.47 36.27C40.64 36.27 40.79 36.26 40.95 36.25C41.10 36.24 41.26 36.22 41.42 36.19C41.57 36.17 41.73 36.14 41.88 36.10C42.03 36.06 42.18 36.01 42.33 35.96C42.48 35.91 42.63 35.86 42.77 35.80C42.92 35.74 43.06 35.67 43.20 35.60C43.34 35.53 43.48 35.45 43.62 35.37C43.75 35.29 43.88 35.20 44.01 35.11C44.14 35.02 44.27 34.92 44.39 34.83C44.51 34.73 44.64 34.63 44.75 34.52C44.87 34.42 44.99 34.31 45.10 34.20C45.21 34.08 45.32 33.97 45.43 33.85C45.53 33.73 45.64 33.60 45.74 33.48C45.85 33.35 45.95 33.22 46.04 33.08C46.14 32.95 46.24 32.81 46.33 32.67C46.43 32.53 46.52 32.38 46.60 32.24C46.69 32.09 46.78 31.94 46.86 31.78C46.94 31.63 47.02 31.47 47.10 31.31C47.18 31.15 47.25 30.98 47.32 30.82C47.39 30.65 47.46 30.48 47.53 30.31C47.59 30.14 47.65 29.96 47.71 29.79C47.77 29.61 47.83 29.43 47.88 29.25C47.93 29.06 47.98 28.88 48.02 28.69C48.07 28.51 48.11 28.32 48.15 28.13C48.19 27.94 48.22 27.74 48.25 27.55C48.28 27.35 48.31 27.16 48.33 26.96C48.36 26.76 48.38 26.56 48.39 26.36C48.41 26.16 48.42 25.95 48.43 25.75C48.44 25.54 48.44 25.32 48.44 25.13Z"/><path d="M74.91 64.37C74.84 63.96 74.76 63.59 74.67 63.20C74.58 62.81 74.48 62.42 74.37 62.04C74.26 61.66 74.15 61.27 74.02 60.90C73.89 60.52 73.76 60.14 73.62 59.77C73.47 59.40 73.32 59.03 73.16 58.67C72.99 58.31 72.82 57.94 72.64 57.59C72.46 57.23 72.27 56.88 72.07 56.54C71.87 56.19 71.66 55.85 71.45 55.52C71.23 55.18 71.01 54.85 70.78 54.53C70.54 54.21 70.30 53.89 70.05 53.58C69.80 53.27 69.55 52.97 69.28 52.67C69.01 52.38 68.74 52.09 68.46 51.80C68.18 51.52 67.89 51.25 67.59 50.98C67.30 50.71 66.99 50.45 66.69 50.20C66.38 49.95 66.06 49.71 65.74 49.48C65.42 49.24 65.10 49.02 64.77 48.80C64.44 48.59 64.10 48.38 63.76 48.18C63.41 47.98 63.07 47.79 62.71 47.60C62.36 47.42 62.00 47.25 61.64 47.08C61.28 46.92 60.91 46.76 60.54 46.61C60.17 46.46 59.79 46.32 59.41 46.19C59.04 46.06 58.66 45.94 58.27 45.83C57.89 45.71 57.51 45.61 57.12 45.51C56.74 45.42 56.35 45.33 55.96 45.25C55.57 45.18 55.17 45.11 54.78 45.04C54.39 44.98 53.99 44.93 53.60 44.88C53.20 44.84 52.80 44.80 52.40 44.77C52.00 44.74 51.60 44.72 51.20 44.70C50.80 44.69 50.40 44.68 50.00 44.68C49.60 44.68 49.20 44.69 48.80 44.70C48.40 44.72 48.00 44.74 47.60 44.77C47.20 44.80 46.80 44.84 46.40 44.88C46.01 44.93 45.61 44.98 45.22 45.04C44.82 45.11 44.43 45.18 44.04 45.26C43.65 45.33 43.26 45.42 42.87 45.52C42.48 45.61 42.09 45.72 41.71 45.83C41.32 45.95 40.94 46.07 40.57 46.20C40.19 46.33 39.82 46.47 39.45 46.62C39.08 46.76 38.71 46.92 38.35 47.09C37.99 47.25 37.63 47.43 37.28 47.61C36.93 47.79 36.58 47.98 36.23 48.18C35.89 48.39 35.55 48.60 35.22 48.81C34.88 49.03 34.55 49.26 34.23 49.50C33.91 49.73 33.59 49.98 33.29 50.23C32.98 50.48 32.68 50.74 32.38 51.00C32.09 51.27 31.80 51.54 31.52 51.82C31.24 52.10 30.97 52.39 30.71 52.69C30.44 52.98 30.19 53.29 29.94 53.60C29.69 53.90 29.45 54.22 29.22 54.54C28.98 54.87 28.76 55.20 28.54 55.53C28.33 55.87 28.12 56.21 27.92 56.55C27.72 56.90 27.53 57.25 27.35 57.60C27.17 57.96 27.00 58.32 26.84 58.68C26.68 59.04 26.53 59.41 26.38 59.78C26.24 60.15 26.10 60.52 25.98 60.90C25.85 61.28 25.74 61.66 25.63 62.04C25.52 62.42 25.42 62.81 25.33 63.20C25.24 63.59 25.16 63.98 25.09 64.37C25.03 64.77 24.97 65.17 24.93 65.56C24.90 65.96 24.87 66.36 24.86 66.76C24.85 67.15 24.85 67.55 24.87 67.95C24.88 68.35 24.92 68.75 24.96 69.15C25.01 69.54 25.07 69.94 25.15 70.33C25.23 70.72 25.32 71.11 25.43 71.49C25.53 71.87 25.66 72.25 25.79 72.63C25.93 73.00 26.08 73.37 26.25 73.74C26.41 74.10 26.59 74.46 26.78 74.81C26.97 75.15 27.18 75.50 27.39 75.83C27.61 76.16 27.83 76.49 28.07 76.81C28.31 77.12 28.56 77.43 28.82 77.74C29.08 78.04 29.35 78.33 29.63 78.62C29.91 78.90 30.20 79.18 30.50 79.45C30.81 79.73 31.12 79.99 31.44 80.25C31.76 80.50 32.09 80.75 32.44 81.00C32.78 81.24 33.13 81.47 33.49 81.70C33.85 81.93 34.23 82.15 34.61 82.36C34.99 82.57 35.38 82.77 35.77 82.96C36.17 83.16 36.58 83.34 37.00 83.52C37.41 83.70 37.84 83.87 38.27 84.03C38.70 84.19 39.14 84.34 39.59 84.48C40.04 84.62 40.50 84.75 40.96 84.88C41.42 85.00 41.89 85.11 42.37 85.22C42.85 85.32 43.33 85.42 43.82 85.50C44.31 85.58 44.81 85.66 45.32 85.72C45.82 85.79 46.33 85.84 46.84 85.88C47.36 85.93 47.88 85.96 48.41 85.98C48.93 86.00 49.52 86.01 50.00 86.01C50.48 86.01 50.88 86.01 51.31 85.99C51.75 85.98 52.19 85.95 52.63 85.92C53.06 85.89 53.50 85.85 53.94 85.81C54.37 85.76 54.81 85.71 55.24 85.65C55.68 85.58 56.11 85.51 56.54 85.44C56.97 85.36 57.40 85.27 57.82 85.18C58.25 85.08 58.67 84.98 59.10 84.86C59.52 84.75 59.94 84.63 60.35 84.50C60.77 84.37 61.18 84.23 61.59 84.08C62.00 83.93 62.41 83.77 62.82 83.60C63.22 83.43 63.62 83.25 64.01 83.07C64.40 82.88 64.79 82.68 65.18 82.48C65.56 82.27 65.94 82.05 66.31 81.82C66.68 81.60 67.04 81.36 67.40 81.11C67.76 80.86 68.11 80.60 68.45 80.34C68.79 80.07 69.12 79.79 69.45 79.50C69.77 79.21 70.08 78.91 70.38 78.60C70.69 78.29 70.98 77.97 71.26 77.64C71.54 77.31 71.81 76.97 72.06 76.62C72.32 76.27 72.56 75.91 72.79 75.55C73.01 75.18 73.23 74.80 73.42 74.42C73.62 74.04 73.80 73.65 73.96 73.25C74.13 72.86 74.28 72.45 74.41 72.04C74.54 71.63 74.65 71.21 74.75 70.79C74.85 70.37 74.93 69.94 74.99 69.52C75.05 69.09 75.09 68.66 75.12 68.24C75.14 67.81 75.15 67.38 75.15 66.95C75.14 66.52 75.11 66.09 75.07 65.66C75.03 65.23 74.98 64.78 74.91 64.37Z"/><path d="M67.49 25.13C67.49 24.94 67.49 24.78 67.48 24.61C67.48 24.43 67.47 24.26 67.46 24.08C67.45 23.91 67.43 23.73 67.41 23.56C67.40 23.39 67.37 23.21 67.35 23.04C67.33 22.87 67.30 22.69 67.27 22.52C67.24 22.35 67.21 22.18 67.17 22.01C67.14 21.84 67.10 21.67 67.06 21.50C67.02 21.33 66.97 21.16 66.92 20.99C66.87 20.82 66.82 20.66 66.77 20.49C66.71 20.32 66.66 20.16 66.59 20.00C66.53 19.83 66.47 19.67 66.40 19.51C66.33 19.35 66.26 19.19 66.19 19.03C66.11 18.87 66.04 18.72 65.96 18.56C65.88 18.41 65.79 18.26 65.70 18.11C65.62 17.96 65.52 17.81 65.43 17.66C65.34 17.52 65.24 17.37 65.14 17.23C65.03 17.09 64.93 16.95 64.82 16.81C64.71 16.68 64.60 16.55 64.48 16.42C64.37 16.29 64.25 16.16 64.12 16.04C64.00 15.92 63.87 15.80 63.74 15.68C63.61 15.57 63.48 15.46 63.34 15.35C63.21 15.25 63.06 15.15 62.92 15.05C62.78 14.96 62.63 14.87 62.48 14.78C62.33 14.70 62.18 14.62 62.02 14.55C61.86 14.48 61.70 14.41 61.54 14.35C61.38 14.29 61.21 14.24 61.05 14.19C60.88 14.15 60.72 14.11 60.55 14.08C60.38 14.05 60.21 14.03 60.04 14.01C59.87 14.00 59.69 13.99 59.53 13.99C59.36 13.99 59.21 13.99 59.05 14.01C58.90 14.02 58.74 14.04 58.58 14.06C58.43 14.09 58.27 14.12 58.12 14.16C57.97 14.20 57.82 14.24 57.67 14.29C57.52 14.34 57.37 14.40 57.23 14.46C57.08 14.52 56.94 14.59 56.80 14.66C56.66 14.73 56.52 14.81 56.38 14.89C56.25 14.97 56.12 15.06 55.99 15.15C55.86 15.24 55.73 15.33 55.61 15.43C55.49 15.53 55.36 15.63 55.25 15.74C55.13 15.84 55.01 15.95 54.90 16.06C54.79 16.18 54.68 16.29 54.57 16.41C54.47 16.53 54.36 16.65 54.26 16.78C54.15 16.91 54.05 17.04 53.96 17.17C53.86 17.31 53.76 17.45 53.67 17.59C53.57 17.73 53.48 17.87 53.40 18.02C53.31 18.17 53.22 18.32 53.14 18.48C53.06 18.63 52.98 18.79 52.90 18.95C52.82 19.11 52.75 19.27 52.68 19.44C52.61 19.61 52.54 19.78 52.47 19.95C52.41 20.12 52.35 20.30 52.29 20.47C52.23 20.65 52.17 20.83 52.12 21.01C52.07 21.19 52.02 21.38 51.98 21.56C51.93 21.75 51.89 21.94 51.85 22.13C51.81 22.32 51.78 22.51 51.75 22.71C51.72 22.90 51.69 23.10 51.67 23.30C51.64 23.50 51.62 23.70 51.61 23.90C51.59 24.10 51.58 24.30 51.57 24.51C51.56 24.71 51.56 24.94 51.56 25.13C51.56 25.32 51.56 25.48 51.57 25.65C51.57 25.83 51.58 26.00 51.59 26.18C51.60 26.35 51.62 26.53 51.64 26.70C51.65 26.87 51.68 27.05 51.70 27.22C51.72 27.39 51.75 27.56 51.78 27.74C51.81 27.91 51.84 28.08 51.88 28.25C51.91 28.42 51.95 28.59 51.99 28.76C52.03 28.93 52.08 29.10 52.13 29.27C52.18 29.43 52.23 29.60 52.28 29.77C52.34 29.93 52.39 30.10 52.46 30.26C52.52 30.43 52.58 30.59 52.65 30.75C52.72 30.91 52.79 31.07 52.86 31.23C52.94 31.38 53.01 31.54 53.09 31.70C53.17 31.85 53.26 32.00 53.35 32.15C53.43 32.30 53.53 32.45 53.62 32.60C53.71 32.74 53.81 32.89 53.91 33.03C54.02 33.17 54.12 33.31 54.23 33.44C54.34 33.58 54.45 33.71 54.57 33.84C54.68 33.97 54.80 34.10 54.93 34.22C55.05 34.34 55.18 34.46 55.31 34.57C55.44 34.69 55.57 34.80 55.71 34.90C55.84 35.01 55.99 35.11 56.13 35.21C56.27 35.30 56.42 35.39 56.57 35.47C56.72 35.56 56.87 35.64 57.03 35.71C57.19 35.78 57.35 35.85 57.51 35.91C57.67 35.97 57.84 36.02 58.00 36.07C58.17 36.11 58.33 36.15 58.50 36.18C58.67 36.21 58.84 36.23 59.01 36.25C59.18 36.26 59.36 36.27 59.53 36.27C59.69 36.27 59.84 36.26 60.00 36.25C60.15 36.24 60.31 36.22 60.47 36.19C60.62 36.17 60.78 36.14 60.93 36.10C61.08 36.06 61.23 36.01 61.38 35.96C61.53 35.91 61.68 35.86 61.82 35.80C61.97 35.74 62.11 35.67 62.25 35.60C62.39 35.53 62.53 35.45 62.67 35.37C62.80 35.29 62.93 35.20 63.06 35.11C63.19 35.02 63.32 34.92 63.44 34.83C63.56 34.73 63.69 34.63 63.80 34.52C63.92 34.42 64.04 34.31 64.15 34.20C64.26 34.08 64.37 33.97 64.48 33.85C64.58 33.73 64.69 33.60 64.79 33.48C64.90 33.35 65.00 33.22 65.09 33.08C65.19 32.95 65.29 32.81 65.38 32.67C65.48 32.53 65.57 32.38 65.65 32.24C65.74 32.09 65.83 31.94 65.91 31.78C65.99 31.63 66.07 31.47 66.15 31.31C66.23 31.15 66.30 30.98 66.37 30.82C66.44 30.65 66.51 30.48 66.58 30.31C66.64 30.14 66.70 29.96 66.76 29.79C66.82 29.61 66.88 29.43 66.93 29.25C66.98 29.06 67.03 28.88 67.07 28.69C67.12 28.51 67.16 28.32 67.20 28.13C67.24 27.94 67.27 27.74 67.30 27.55C67.33 27.35 67.36 27.16 67.38 26.96C67.41 26.76 67.43 26.56 67.44 26.36C67.46 26.16 67.47 25.95 67.48 25.75C67.49 25.54 67.49 25.32 67.49 25.13Z"/></g></svg>